# xmcd
# Track frame offsets:
# 150
# 11277
# 26979
# 35835
# 51106
# 64704
# 81793
# 99075
# 114696
# 117497
# 131540
# 148475
# 169959
# 187984
# 204754
# 218951
# 223065
#
# Disc length: 3185 seconds
# Revision: 1
# Processed by: cddbd v1.5.2PL0 Copyright (c) Steve Scherf et al.
# Submitted via: VisiTrax 2.11.3.279 - For more info visit www.synapsa.com
#
DISCID=fc0c6f11
DTITLE=Slim Dusty - Slim Dusty Live Disc 1
DYEAR=2006
DGENRE=Australian Country
TTITLE0=Slim Dusty - I'm Going Back To Yarrawonga/Old Bush Shanty Of Mine
TTITLE1=Slim Dusty - Leave Him in The Longyard
TTITLE2=Slim Dusty - Introduction
TTITLE3=Slim Dusty - The Saddle Is His Home (Tall Dark Man In The Saddle)
TTITLE4=Anne Kirkpatrick - I Got You
TTITLE5=Anne Kirkpatrick - Where Country Is
TTITLE6=Anne Kirkpatrick - If I Needed You
TTITLE7=Anne Kirkpatrick - Indian Pacific
TTITLE8=Slim Dusty - Introduction
TTITLE9=Slim Dusty - Natural High
TTITLE10=Slim Dusty - Looking Foward Looking Back
TTITLE11=Slim Dusty - Never Was At All
TTITLE12=Slim Dusty - Abalinga Mail
TTITLE13=Slim Dusty - Names Upon The Wall
TTITLE14=Slim Dusty - No Good Truckin' Man
TTITLE15=Slim Dusty - Introduction
TTITLE16=Slim Dusty - Man From The Never Never
EXTD=2006 EMI Australia Pty.
EXTT0=
EXTT1=
EXTT2=
EXTT3=
EXTT4=
EXTT5=
EXTT6=
EXTT7=
EXTT8=
EXTT9=
EXTT10=
EXTT11=
EXTT12=
EXTT13=
EXTT14=
EXTT15=
EXTT16=
PLAYORDER=
